<svg width="500" height="500" viewBox="0 0 500 500" xmlns="http://www.w3.org/2000/svg"><rect width="500" height="500" fill="#0a0a0a"/><g filter="url(#glow)"><rect x="100" y="140" width="60" height="220" rx="30" fill="url(#grad1)"/><rect x="340" y="140" width="60" height="220" rx="30" fill="url(#grad2)"/><path d="M130 140 L250 260 L220 275 L115 170 C105 160 105 145 115 135 L125 125 C135 115 150 115 160 125 Z" fill="url(#grad3)"/><path d="M370 140 L250 260 L280 275 L385 170 C395 160 395 145 385 135 L375 125 C365 115 350 115 340 125 Z" fill="url(#grad4)"/><circle cx="250" cy="265" r="20" fill="url(#grad5)"/></g><defs><linearGradient id="grad1" x1="100" y1="140" x2="160" y2="360"><stop offset="0%" stop-color="#ffffff"/><stop offset="100%" stop-color="#d4d4d4"/></linearGradient><linearGradient id="grad2" x1="340" y1="140" x2="400" y2="360"><stop offset="0%" stop-color="#ffffff"/><stop offset="100%" stop-color="#d4d4d4"/></linearGradient><linearGradient id="grad3" x1="115" y1="125" x2="250" y2="275"><stop offset="0%" stop-color="#ffffff"/><stop offset="100%" stop-color="#a3a3a3"/></linearGradient><linearGradient id="grad4" x1="385" y1="125" x2="250" y2="275"><stop offset="0%" stop-color="#ffffff"/><stop offset="100%" stop-color="#a3a3a3"/></linearGradient><radialGradient id="grad5"><stop offset="0%" stop-color="#ffffff"/><stop offset="100%" stop-color="#e5e5e5"/></radialGradient><filter id="glow" x="-50%" y="-50%" width="200%" height="200%"><feGaussianBlur stdDeviation="8" result="coloredBlur"/><feMerge><feMergeNode in="coloredBlur"/><feMergeNode in="SourceGraphic"/></feMerge></filter></defs></svg>